<svg width="169" height="27" viewBox="0 0 169 27" fill="none" xmlns="http://www.w3.org/2000/svg">
<path d="M8.952 16.52V20H6.864C5.376 20 4.216 19.64 3.384 18.92C2.552 18.184 2.136 16.992 2.136 15.344V10.016H0.504V6.608H2.136V3.344H6.24V6.608H8.928V10.016H6.24V15.392C6.24 15.792 6.336 16.08 6.528 16.256C6.72 16.432 7.04 16.52 7.488 16.52H8.952ZM23.862 13.088C23.862 13.472 23.838 13.872 23.79 14.288H14.502C14.566 15.12 14.83 15.76 15.294 16.208C15.774 16.64 16.358 16.856 17.046 16.856C18.07 16.856 18.782 16.424 19.182 15.56H23.55C23.326 16.44 22.918 17.232 22.326 17.936C21.75 18.64 21.022 19.192 20.142 19.592C19.262 19.992 18.278 20.192 17.19 20.192C15.878 20.192 14.71 19.912 13.686 19.352C12.662 18.792 11.862 17.992 11.286 16.952C10.71 15.912 10.422 14.696 10.422 13.304C10.422 11.912 10.702 10.696 11.262 9.656C11.838 8.616 12.638 7.816 13.662 7.256C14.686 6.696 15.862 6.416 17.19 6.416C18.486 6.416 19.638 6.688 20.646 7.232C21.654 7.776 22.438 8.552 22.998 9.56C23.574 10.568 23.862 11.744 23.862 13.088ZM19.662 12.008C19.662 11.304 19.422 10.744 18.942 10.328C18.462 9.912 17.862 9.704 17.142 9.704C16.454 9.704 15.87 9.904 15.39 10.304C14.926 10.704 14.638 11.272 14.526 12.008H19.662ZM30.1311 8.84C30.6111 8.104 31.2111 7.528 31.9311 7.112C32.6511 6.68 33.4511 6.464 34.3311 6.464V10.808H33.2031C32.1791 10.808 31.4111 11.032 30.8991 11.48C30.3871 11.912 30.1311 12.68 30.1311 13.784V20H26.0271V6.608H30.1311V8.84ZM38.3567 5.216C37.6367 5.216 37.0447 5.008 36.5807 4.592C36.1327 4.16 35.9087 3.632 35.9087 3.008C35.9087 2.368 36.1327 1.84 36.5807 1.424C37.0447 0.991999 37.6367 0.775999 38.3567 0.775999C39.0607 0.775999 39.6367 0.991999 40.0847 1.424C40.5487 1.84 40.7807 2.368 40.7807 3.008C40.7807 3.632 40.5487 4.16 40.0847 4.592C39.6367 5.008 39.0607 5.216 38.3567 5.216ZM40.3967 6.608V20H36.2927V6.608H40.3967ZM42.5548 13.28C42.5548 11.904 42.8108 10.696 43.3228 9.656C43.8508 8.616 44.5628 7.816 45.4588 7.256C46.3548 6.696 47.3548 6.416 48.4588 6.416C49.3388 6.416 50.1388 6.6 50.8588 6.968C51.5948 7.336 52.1708 7.832 52.5868 8.456V2.24H56.6908V20H52.5868V18.08C52.2028 18.72 51.6508 19.232 50.9308 19.616C50.2268 20 49.4028 20.192 48.4588 20.192C47.3548 20.192 46.3548 19.912 45.4588 19.352C44.5628 18.776 43.8508 17.968 43.3228 16.928C42.8108 15.872 42.5548 14.656 42.5548 13.28ZM52.5868 13.304C52.5868 12.28 52.2988 11.472 51.7228 10.88C51.1628 10.288 50.4748 9.992 49.6588 9.992C48.8428 9.992 48.1468 10.288 47.5708 10.88C47.0108 11.456 46.7308 12.256 46.7308 13.28C46.7308 14.304 47.0108 15.12 47.5708 15.728C48.1468 16.32 48.8428 16.616 49.6588 16.616C50.4748 16.616 51.1628 16.32 51.7228 15.728C52.2988 15.136 52.5868 14.328 52.5868 13.304ZM61.7239 5.216C61.0039 5.216 60.4119 5.008 59.9479 4.592C59.4999 4.16 59.2759 3.632 59.2759 3.008C59.2759 2.368 59.4999 1.84 59.9479 1.424C60.4119 0.991999 61.0039 0.775999 61.7239 0.775999C62.4279 0.775999 63.0039 0.991999 63.4519 1.424C63.9159 1.84 64.1479 2.368 64.1479 3.008C64.1479 3.632 63.9159 4.16 63.4519 4.592C63.0039 5.008 62.4279 5.216 61.7239 5.216ZM63.7639 6.608V20H59.6599V6.608H63.7639ZM68.658 20.192C67.938 20.192 67.346 19.984 66.882 19.568C66.434 19.136 66.21 18.608 66.21 17.984C66.21 17.344 66.434 16.808 66.882 16.376C67.346 15.944 67.938 15.728 68.658 15.728C69.362 15.728 69.938 15.944 70.386 16.376C70.85 16.808 71.082 17.344 71.082 17.984C71.082 18.608 70.85 19.136 70.386 19.568C69.938 19.984 69.362 20.192 68.658 20.192ZM78.5994 6.416C79.5434 6.416 80.3674 6.608 81.0714 6.992C81.7914 7.376 82.3434 7.88 82.7274 8.504V6.608H86.8314V19.976C86.8314 21.208 86.5834 22.32 86.0874 23.312C85.6074 24.32 84.8634 25.12 83.8554 25.712C82.8634 26.304 81.6234 26.6 80.1354 26.6C78.1514 26.6 76.5434 26.128 75.3114 25.184C74.0794 24.256 73.3754 22.992 73.1994 21.392H77.2554C77.3834 21.904 77.6874 22.304 78.1674 22.592C78.6474 22.896 79.2394 23.048 79.9434 23.048C80.7914 23.048 81.4634 22.8 81.9594 22.304C82.4714 21.824 82.7274 21.048 82.7274 19.976V18.08C82.3274 18.704 81.7754 19.216 81.0714 19.616C80.3674 20 79.5434 20.192 78.5994 20.192C77.4954 20.192 76.4954 19.912 75.5994 19.352C74.7034 18.776 73.9914 17.968 73.4634 16.928C72.9514 15.872 72.6954 14.656 72.6954 13.28C72.6954 11.904 72.9514 10.696 73.4634 9.656C73.9914 8.616 74.7034 7.816 75.5994 7.256C76.4954 6.696 77.4954 6.416 78.5994 6.416ZM82.7274 13.304C82.7274 12.28 82.4394 11.472 81.8634 10.88C81.3034 10.288 80.6154 9.992 79.7994 9.992C78.9834 9.992 78.2874 10.288 77.7114 10.88C77.1514 11.456 76.8714 12.256 76.8714 13.28C76.8714 14.304 77.1514 15.12 77.7114 15.728C78.2874 16.32 78.9834 16.616 79.7994 16.616C80.6154 16.616 81.3034 16.32 81.8634 15.728C82.4394 15.136 82.7274 14.328 82.7274 13.304ZM93.9045 8.84C94.3845 8.104 94.9845 7.528 95.7045 7.112C96.4245 6.68 97.2245 6.464 98.1045 6.464V10.808H96.9765C95.9525 10.808 95.1845 11.032 94.6725 11.48C94.1605 11.912 93.9045 12.68 93.9045 13.784V20H89.8005V6.608H93.9045V8.84ZM99.2501 13.28C99.2501 11.904 99.5061 10.696 100.018 9.656C100.546 8.616 101.258 7.816 102.154 7.256C103.05 6.696 104.05 6.416 105.154 6.416C106.098 6.416 106.922 6.608 107.626 6.992C108.346 7.376 108.898 7.88 109.282 8.504V6.608H113.386V20H109.282V18.104C108.882 18.728 108.322 19.232 107.602 19.616C106.898 20 106.074 20.192 105.13 20.192C104.042 20.192 103.05 19.912 102.154 19.352C101.258 18.776 100.546 17.968 100.018 16.928C99.5061 15.872 99.2501 14.656 99.2501 13.28ZM109.282 13.304C109.282 12.28 108.994 11.472 108.418 10.88C107.858 10.288 107.17 9.992 106.354 9.992C105.538 9.992 104.842 10.288 104.266 10.88C103.706 11.456 103.426 12.256 103.426 13.28C103.426 14.304 103.706 15.12 104.266 15.728C104.842 16.32 105.538 16.616 106.354 16.616C107.17 16.616 107.858 16.32 108.418 15.728C108.994 15.136 109.282 14.328 109.282 13.304ZM120.459 8.504C120.859 7.88 121.411 7.376 122.115 6.992C122.819 6.608 123.643 6.416 124.587 6.416C125.691 6.416 126.691 6.696 127.587 7.256C128.483 7.816 129.187 8.616 129.699 9.656C130.227 10.696 130.491 11.904 130.491 13.28C130.491 14.656 130.227 15.872 129.699 16.928C129.187 17.968 128.483 18.776 127.587 19.352C126.691 19.912 125.691 20.192 124.587 20.192C123.659 20.192 122.835 20 122.115 19.616C121.411 19.232 120.859 18.736 120.459 18.128V26.384H116.355V6.608H120.459V8.504ZM126.315 13.28C126.315 12.256 126.027 11.456 125.451 10.88C124.891 10.288 124.195 9.992 123.363 9.992C122.547 9.992 121.851 10.288 121.275 10.88C120.715 11.472 120.435 12.28 120.435 13.304C120.435 14.328 120.715 15.136 121.275 15.728C121.851 16.32 122.547 16.616 123.363 16.616C124.179 16.616 124.875 16.32 125.451 15.728C126.027 15.12 126.315 14.304 126.315 13.28ZM140.876 6.464C142.412 6.464 143.644 6.976 144.572 8C145.5 9.008 145.964 10.4 145.964 12.176V20H141.884V12.728C141.884 11.832 141.652 11.136 141.188 10.64C140.724 10.144 140.1 9.896 139.316 9.896C138.532 9.896 137.908 10.144 137.444 10.64C136.98 11.136 136.748 11.832 136.748 12.728V20H132.644V2.24H136.748V8.408C137.164 7.816 137.732 7.344 138.452 6.992C139.172 6.64 139.98 6.464 140.876 6.464ZM150.88 5.216C150.16 5.216 149.568 5.008 149.104 4.592C148.656 4.16 148.432 3.632 148.432 3.008C148.432 2.368 148.656 1.84 149.104 1.424C149.568 0.991999 150.16 0.775999 150.88 0.775999C151.584 0.775999 152.16 0.991999 152.608 1.424C153.072 1.84 153.304 2.368 153.304 3.008C153.304 3.632 153.072 4.16 152.608 4.592C152.16 5.008 151.584 5.216 150.88 5.216ZM152.92 6.608V20H148.816V6.608H152.92ZM155.078 13.304C155.078 11.912 155.358 10.696 155.918 9.656C156.494 8.616 157.286 7.816 158.294 7.256C159.318 6.696 160.486 6.416 161.798 6.416C163.478 6.416 164.878 6.856 165.998 7.736C167.134 8.616 167.878 9.856 168.23 11.456H163.862C163.494 10.432 162.782 9.92 161.726 9.92C160.974 9.92 160.374 10.216 159.926 10.808C159.478 11.384 159.254 12.216 159.254 13.304C159.254 14.392 159.478 15.232 159.926 15.824C160.374 16.4 160.974 16.688 161.726 16.688C162.782 16.688 163.494 16.176 163.862 15.152H168.23C167.878 16.72 167.134 17.952 165.998 18.848C164.862 19.744 163.462 20.192 161.798 20.192C160.486 20.192 159.318 19.912 158.294 19.352C157.286 18.792 156.494 17.992 155.918 16.952C155.358 15.912 155.078 14.696 155.078 13.304Z" fill="#7DB4C7"/>
</svg>
